<?xml version="1.0" standalone="no"?>
<!DOCTYPE svg PUBLIC "-//W3C//DTD SVG 20010904//EN"
 "http://www.w3.org/TR/2001/REC-SVG-20010904/DTD/svg10.dtd">
<svg version="1.0" xmlns="http://www.w3.org/2000/svg"
 width="1000.000000pt" height="1000.000000pt" viewBox="0 0 1000.000000 1000.000000"
 preserveAspectRatio="xMidYMid meet">
<metadata>
Created by potrace 1.14, written by Peter Selinger 2001-2017
</metadata>
<g transform="translate(0.000000,1000.000000) scale(0.100000,-0.100000)"
fill="#000000" stroke="none">
<path d="M2709 8746 c-2 -3 -27 -7 -54 -11 -28 -3 -86 -15 -130 -27 -356 -95
-652 -342 -805 -671 -45 -98 -51 -114 -145 -422 -40 -132 -85 -280 -101 -330
-15 -49 -28 -94 -30 -100 -1 -5 -13 -46 -27 -90 -14 -44 -33 -107 -43 -140 -9
-33 -28 -94 -41 -135 -14 -41 -26 -82 -28 -90 -2 -8 -22 -76 -45 -150 -23 -74
-55 -180 -71 -235 -17 -55 -37 -120 -46 -145 -8 -25 -16 -52 -18 -60 -2 -8
-22 -76 -45 -150 -55 -177 -82 -265 -114 -375 -15 -49 -44 -146 -66 -215 -21
-69 -64 -210 -95 -315 -31 -104 -61 -199 -66 -210 -4 -11 -15 -45 -23 -75 -8
-30 -75 -253 -149 -495 -302 -984 -490 -1604 -508 -1675 -102 -391 121 -823
500 -969 150 -58 170 -60 696 -57 264 2 494 6 512 9 57 11 180 46 237 67 30
12 58 21 60 21 12 0 177 95 236 137 93 65 237 214 302 313 98 148 127 220 243
594 20 66 59 192 87 280 91 294 105 339 147 475 23 74 46 146 51 160 5 14 16
52 26 85 9 33 20 64 24 68 4 4 19 -32 33 -80 14 -48 39 -133 55 -188 17 -55
42 -140 57 -190 14 -49 39 -133 55 -185 16 -52 88 -293 161 -535 72 -242 144
-467 159 -500 81 -176 241 -334 417 -411 126 -56 201 -68 433 -68 237 -1 284
4 394 40 28 9 69 26 91 37 22 12 42 21 45 22 16 2 127 84 173 128 125 121 178
219 266 497 35 107 78 245 98 305 19 61 37 118 39 128 2 10 5 26 8 35 3 9 8
33 11 52 3 19 10 51 15 70 7 31 11 55 26 160 9 64 18 215 18 315 0 192 -15
331 -59 550 -14 70 -54 205 -221 738 -97 309 -184 589 -194 622 -10 33 -43
139 -73 235 -57 180 -82 260 -122 390 -24 78 -208 668 -249 800 -13 41 -47
147 -74 235 -82 261 -200 640 -248 795 -25 80 -49 156 -54 170 -5 14 -25 79
-45 145 -72 235 -117 320 -226 427 -141 137 -311 201 -514 193 -60 -2 -114 -4
-120 -4 -51 4 -822 8 -826 5z"/>
<path d="M6140 8730 c-198 -42 -360 -130 -505 -274 -246 -247 -347 -616 -260
-951 20 -79 17 -69 47 -160 14 -44 54 -168 88 -275 34 -107 92 -292 130 -410
38 -118 96 -303 130 -410 34 -107 65 -206 70 -220 5 -14 36 -110 68 -215 101
-317 203 -639 212 -665 5 -14 33 -104 63 -200 97 -307 188 -594 197 -620 5
-14 34 -106 65 -205 31 -99 74 -234 95 -300 21 -66 64 -201 95 -300 31 -99 65
-205 75 -235 15 -45 69 -215 141 -445 161 -514 209 -611 401 -816 106 -114
273 -225 443 -294 59 -24 216 -63 287 -72 80 -10 948 -10 1009 0 266 43 500
223 620 477 56 116 73 197 73 345 1 130 -10 181 -77 385 -19 58 -92 281 -162
495 -69 215 -130 401 -135 415 -5 14 -61 187 -125 385 -64 198 -125 385 -135
415 -10 30 -66 204 -125 385 -59 182 -122 375 -140 430 -18 55 -83 255 -145
445 -61 190 -120 370 -130 400 -10 30 -64 197 -120 370 -56 173 -112 347 -125
385 -13 39 -81 246 -150 460 -69 215 -135 417 -146 450 -44 129 -124 272 -213
385 -11 14 -57 61 -101 105 -177 175 -392 287 -644 335 -140 27 -744 27 -871
0z"/>
</g>
</svg>
